<?xml version="1.0" standalone="no"?>
<!DOCTYPE svg PUBLIC "-//W3C//DTD SVG 20010904//EN"
 "http://www.w3.org/TR/2001/REC-SVG-20010904/DTD/svg10.dtd">
<svg width="70px" class="logo-footer-svg" height="65px" viewBox="0 0 70 65" version="1.1" xmlns="http://www.w3.org/2000/svg" xmlns:xlink="http://www.w3.org/1999/xlink">
    <title>formelement_footer_black</title>
    <metadata>Created by Link</metadata>
    <g id="Symbols" stroke="none" stroke-width="1" fill-rule="evenodd">
        <g id="footer_black" transform="translate(-1330.000000, -35.000000)">
            <g id="formelement_footer_black" transform="translate(1330.000000, 35.000000)">
                <polygon id="Fill-1" class="letter-i" points="51.0688964 0 30 12.1551582 34.9312216 15 56 2.84495972" data-svg-origin="30 0" style="transform-origin: 0px 0px;" transform="matrix(1,0,0,1,0,0)"></polygon>
                <polygon id="Fill-2" class="letter-l" points="0 16.0262314 0 24.0409197 11.9079925 31 17.3728228 27.8063488 5.02901749 20.5926395 27 7.75259852 20.5787322 4" data-svg-origin="0 4" style="transform-origin: 0px 0px;" transform="matrix(1,0,0,1,0,0)"></polygon>
                <polygon id="Fill-3" class="letter-n" points="42 29.7623661 46.7090198 32.4001846 60.2501123 24.8149731 56.0087607 37.6096481 60.2759828 40 70 34.5528819 70 29.2771307 63.7260498 32.7915219 67.9127206 20.7529379 62.9981479 18" data-svg-origin="42 18" style="transform-origin: 0px 0px;" transform="matrix(1,0,0,1,0,0)"></polygon>
                <polygon id="Fill-4" class="letter-k" points="7 60.9985103 13.6530683 64.7436002 21.3321741 60.421116 28.1998806 60.1421372 26.5357779 65 35.8719432 65 37.728719 59.7559663 60 58.8347659 52.2727856 54.4851636 29.7640655 55.6747517 42.0752024 48.7450899 35.4221341 45" data-svg-origin="7 45" transform="matrix(1,0,0,1,0,0)" style="transform-origin: 0px 0px;"></polygon>
            </g>
        </g>
    </g>
</svg>